<svg xmlns="http://www.w3.org/2000/svg" viewBox="0 0 512 512" width="512" height="512">
  <defs>
    <linearGradient id="bg" x1="0" y1="0" x2="0" y2="1"><stop offset="0" stop-color="#0d1424"/><stop offset="1" stop-color="#060912"/></linearGradient>
    <linearGradient id="gold" x1="0" y1="0" x2="1" y2="1"><stop offset="0" stop-color="#f9a825"/><stop offset="0.5" stop-color="#ffd600"/><stop offset="1" stop-color="#f9a825"/></linearGradient>
  </defs>
  <rect width="512" height="512" rx="96" fill="url(#bg)"/>
  <circle cx="256" cy="256" r="170" fill="none" stroke="url(#gold)" stroke-width="8" opacity="0.6"/>
  <path d="M256 110 L356 150 L356 270 C356 330 310 380 256 402 C202 380 156 330 156 270 L156 150 Z" fill="url(#bg)" stroke="url(#gold)" stroke-width="6"/>
  <path d="M256 170 L270 215 L318 215 L280 242 L294 287 L256 260 L218 287 L232 242 L194 215 L242 215 Z" fill="url(#gold)"/>
  <text x="256" y="350" text-anchor="middle" font-family="Arial" font-size="28" font-weight="900" fill="url(#gold)">SATPOL</text>
  <text x="256" y="378" text-anchor="middle" font-family="Arial" font-size="22" font-weight="700" fill="#ffd600">JABAR</text>
</svg>
